<svg id="レイヤー_1" data-name="レイヤー 1" xmlns="http://www.w3.org/2000/svg" viewBox="0 0 226.03 60.91"><defs><style>.cls-1{font-size:32px;fill:#432;font-family:Optima-Regular, Optima;}.cls-2{fill:#c05746;}.cls-3{fill:#fff;}</style></defs><title>名称未設定-1</title><text class="cls-1" transform="translate(66.99 42.97)">ABC CAFE</text><circle id="Ellipse_11" data-name="Ellipse 11" class="cls-2" cx="31.86" cy="30.72" r="28.95"/><path class="cls-3" d="M43.25,17.1,43,13H20.7l-.23,4.09h-2v6.28H20.3l1.4,25H42l1.4-25h1.83V17.1Zm-3,29.36H23.48L22.15,22.75H41.57Zm3.12-25h-23V19h1.89l.23-4.08H41.24L41.47,19h1.89v2.51Z"/><path class="cls-3" d="M31.86,41A6.91,6.91,0,1,0,25,34.06,6.9,6.9,0,0,0,31.86,41Zm0-12.11a5.21,5.21,0,1,1-5.21,5.21A5.21,5.21,0,0,1,31.86,28.85Z"/><path class="cls-3" d="M31.86,38.57a4.52,4.52,0,1,0-3.19-1.32A4.48,4.48,0,0,0,31.86,38.57Zm-.75-5.43.75-1.53.76,1.53,1.68.25-1.22,1.19.29,1.68-1.51-.8-1.51.8.29-1.68-1.22-1.19Z"/><path class="cls-3" d="M31.86,5.08A25.64,25.64,0,1,0,57.5,30.72,25.64,25.64,0,0,0,31.86,5.08Zm0,48.85A23.21,23.21,0,1,1,55.07,30.72,23.21,23.21,0,0,1,31.86,53.93Z"/></svg>